# xmcd
#
# Track frame offsets: 
#        150
#        38060
#        101975
#        129968
#        196571
#
# Disc length: 3634 seconds
#
# Revision: 0
# Processed by: cddbd v1.5.1PL0 Copyright (c) Steve Scherf et al.
# Submitted via: ExactAudioCopy v0.95a5
#
DISCID=370e3005
DTITLE=Allman Brothers Band - 2005-08-17 London Canada  Disc 3
DYEAR=2005
DGENRE=Rock
TTITLE0=Southbound
TTITLE1=Mountain Jam >
TTITLE2=Drums >
TTITLE3=Mountain Jam
TTITLE4=Whipping Post
EXTD=
EXTT0=
EXTT1=
EXTT2=
EXTT3=
EXTT4=
PLAYORDER=
